<?xml version="1.0" standalone="no"?>
<!DOCTYPE svg PUBLIC "-//W3C//DTD SVG 20010904//EN"
 "http://www.w3.org/TR/2001/REC-SVG-20010904/DTD/svg10.dtd">
<svg version="1.0" xmlns="http://www.w3.org/2000/svg"
 width="620.000000pt" height="443.000000pt" viewBox="0 0 620.000000 443.000000"
 preserveAspectRatio="xMidYMid meet">
<metadata>
Created by potrace 1.16, written by Peter Selinger 2001-2019
</metadata>
<g transform="translate(0.000000,443.000000) scale(0.100000,-0.100000)"
fill="none" stroke="white" stroke-width="50">
<path d="M4704 3335 c-21 -53 43 -224 122 -328 64 -85 58 -116 -8 -45 -49 53
-77 63 -156 55 -80 -8 -168 -39 -310 -109 l-123 -62 -22 22 c-15 16 -19 26
-12 35 123 163 139 304 40 351 -88 42 -215 -35 -372 -227 -13 -15 -32 -27 -44
-27 -55 0 -187 -75 -276 -157 -79 -72 -217 -236 -272 -322 -27 -42 -62 -89
-78 -105 -60 -61 -260 -142 -413 -167 -98 -16 -309 -16 -385 -1 -94 20 -255
82 -255 99 0 5 23 14 51 20 69 17 148 57 199 101 74 63 110 177 77 242 -34 67
-145 92 -227 50 l-40 -20 -48 50 c-29 30 -57 50 -70 50 -15 0 -28 12 -41 38
-10 20 -28 45 -40 56 -28 26 -98 32 -145 12 -38 -16 -39 -16 -72 14 -59 51
-136 52 -191 1 -49 -44 -66 -87 -66 -164 0 -58 5 -78 37 -140 20 -40 55 -92
77 -116 22 -24 37 -47 32 -51 -23 -22 -138 -44 -249 -48 -148 -5 -234 14 -397
90 -105 49 -197 72 -197 51 0 -6 19 -13 41 -17 23 -4 94 -31 158 -60 157 -72
237 -91 381 -89 108 1 177 12 265 44 30 11 37 9 91 -24 77 -48 161 -76 248
-84 52 -4 86 -14 126 -36 134 -74 271 -107 439 -107 216 1 425 55 583 152 44
27 52 29 74 18 49 -27 179 23 429 165 72 41 135 75 138 75 4 0 7 -19 7 -43 0
-94 -34 -147 -125 -195 -43 -23 -63 -27 -138 -27 l-88 -1 -158 -117 c-136
-101 -304 -231 -466 -360 -177 -143 -458 -389 -521 -459 l-38 -43 -86 3 c-47
2 -175 -4 -285 -12 -110 -9 -236 -18 -280 -22 -323 -23 -516 -71 -603 -150
-47 -42 -47 -42 -47 -105 1 -84 31 -136 146 -249 194 -194 298 -220 486 -124
48 24 93 44 100 44 17 0 221 69 255 86 36 19 53 18 34 -1 -8 -8 -17 -15 -20
-15 -3 0 -27 -13 -54 -29 -53 -31 -323 -173 -631 -332 -68 -35 -117 -65 -107
-67 13 -3 228 103 501 248 39 20 115 61 170 90 96 51 244 140 275 166 8 7 107
53 220 102 246 108 587 260 688 308 41 19 75 34 78 34 2 0 47 20 100 45 53 25
98 45 100 45 4 0 347 156 464 212 47 22 119 55 160 73 157 67 254 126 366 222
l51 43 59 -26 c88 -40 246 -94 272 -94 l22 0 -31 61 c-33 65 -48 165 -35 232
5 29 14 40 42 53 19 9 36 15 37 13 2 -2 8 -35 15 -74 10 -60 9 -78 -5 -123
-21 -67 -7 -89 29 -47 l24 28 63 -47 c35 -25 70 -46 78 -46 54 0 -82 -85 -155
-96 -23 -3 -45 -10 -48 -15 -17 -27 80 -129 154 -161 60 -27 168 -22 235 11
193 94 214 362 38 479 -96 63 -236 64 -335 2 -25 -16 -48 -25 -51 -20 -3 4 -8
35 -11 67 l-6 59 65 38 c130 76 213 169 243 273 l15 53 48 -72 c58 -88 105
-136 149 -155 41 -17 62 -4 62 36 -1 36 -26 90 -111 231 -55 92 -69 124 -61
132 18 18 14 79 -6 113 -19 30 -65 59 -112 70 -18 4 -51 43 -123 150 -144 211
-196 265 -213 220z m84 -77 c61 -78 205 -288 201 -293 -2 -2 -24 -6 -49 -9
-44 -6 -45 -6 -78 39 -83 114 -105 157 -132 263 -9 37 -8 62 5 62 2 0 25 -28
53 -62z m-552 -26 c23 -16 44 -58 44 -87 0 -59 -39 -149 -95 -220 -15 -19 -16
-19 -43 -2 -61 40 -148 76 -198 83 -30 3 -54 10 -54 15 0 19 148 163 195 190
49 28 125 39 151 21z m528 -251 c53 -33 75 -71 69 -122 -6 -54 12 -101 57
-153 39 -44 81 -68 99 -56 19 11 5 49 -56 146 -27 43 -53 85 -57 92 -4 7 -1
15 8 18 11 4 38 -14 81 -55 47 -43 79 -64 113 -74 46 -13 48 -16 125 -143 83
-139 113 -204 103 -229 -5 -14 -9 -14 -35 -1 -51 27 -129 126 -183 233 -29 57
-56 103 -61 103 -5 0 -6 -8 -2 -17 5 -10 10 -49 13 -86 4 -61 1 -74 -27 -132
-36 -72 -116 -151 -201 -199 l-52 -28 7 56 c4 31 5 56 2 56 -13 0 -81 -79
-108 -126 -27 -48 -49 -63 -87 -64 -8 0 -2 16 16 43 40 58 62 102 62 126 0 12
16 31 40 48 22 15 86 61 141 101 l100 74 -49 47 c-54 51 -93 119 -112 191 -23
91 -14 83 -94 77 -110 -10 -312 -56 -398 -92 -12 -5 -18 -3 -18 7 0 17 128 87
226 124 152 57 227 66 278 35z m-775 -7 c57 -17 151 -70 151 -85 0 -24 -163
-144 -184 -136 -8 3 -16 34 -20 77 -3 40 -9 77 -13 83 -10 16 -42 -87 -49
-160 -5 -48 -12 -67 -27 -78 -19 -13 -22 -12 -39 28 -41 90 -35 148 23 239 28
43 35 48 68 48 21 0 61 -7 90 -16z m-2212 -41 c35 -36 35 -36 66 -21 50 26 84
29 121 14 32 -13 56 -41 56 -65 0 -6 -15 -17 -33 -25 -67 -28 -112 -113 -105
-199 l3 -40 -85 -49 -85 -49 -51 55 c-66 69 -104 147 -111 224 -7 75 9 123 53
162 29 25 43 30 86 30 45 0 54 -4 85 -37z m2043 28 c0 -6 -5 -13 -11 -17 -41
-25 -62 -159 -35 -213 8 -15 16 -40 18 -56 3 -26 -4 -33 -77 -77 -118 -71
-353 -187 -407 -200 -55 -14 -74 -4 -65 34 20 77 278 380 390 456 96 66 187
101 187 73z m922 -113 c13 -63 63 -160 108 -211 25 -28 39 -52 33 -55 -5 -4
-55 -40 -110 -79 -55 -40 -103 -73 -107 -73 -4 0 -16 9 -28 20 -16 14 -36 20
-69 20 l-48 0 -60 83 c-33 45 -82 111 -108 146 -26 35 -52 70 -58 77 -5 7 -6
16 -3 19 23 23 350 96 413 92 25 -2 30 -7 37 -39z m-548 3 c16 -18 14 -21 -68
-81 -74 -53 -101 -80 -81 -80 3 0 48 20 99 45 52 25 100 45 108 45 7 0 49 -49
92 -108 44 -59 95 -127 113 -151 38 -51 37 -53 -51 -71 -64 -13 -117 -33 -214
-83 l-64 -32 -24 30 c-35 44 -110 200 -132 278 l-20 67 21 15 c12 9 60 44 107
80 47 35 88 64 91 64 3 1 14 -8 23 -18z m-2083 -54 c19 -12 41 -37 49 -54 8
-18 20 -33 25 -33 6 0 32 11 59 25 27 14 65 25 83 25 47 0 99 -24 114 -52 17
-32 15 -108 -5 -146 -18 -35 -80 -95 -125 -123 -40 -24 -156 -59 -196 -59 -49
0 -139 79 -179 157 -22 45 -21 50 25 100 41 45 89 133 89 166 0 23 20 22 61
-6z m1845 -172 c26 -88 60 -160 109 -237 l44 -68 -37 -25 -37 -26 -26 31 c-85
100 -153 360 -101 389 22 13 26 8 48 -64z m-78 -62 c12 -87 60 -207 108 -270
l25 -33 -98 -98 c-134 -132 -202 -240 -203 -321 -1 -23 -16 -34 -137 -101
-175 -96 -278 -150 -483 -257 -275 -143 -515 -269 -657 -344 -40 -22 -74 -39
-77 -39 -3 0 6 29 19 65 41 108 33 151 -37 186 l-41 21 80 76 c152 147 318
289 563 483 136 108 488 375 519 394 8 4 44 7 81 6 81 -2 159 24 217 74 54 46
73 89 73 167 0 59 15 99 30 81 4 -5 12 -45 18 -90z m-1962 -35 c10 -24 43 -67
73 -97 l55 -54 -57 6 c-69 7 -180 48 -222 81 l-29 24 61 31 c34 17 64 35 68
41 13 21 33 9 51 -32z m2596 -154 c0 -24 -3 -48 -7 -54 -10 -16 -170 -120
-184 -120 -19 0 -122 64 -149 93 l-23 24 23 15 c69 44 211 96 303 111 27 4 38
-18 37 -69z m-336 -113 c25 -21 60 -46 79 -55 19 -10 35 -21 35 -25 0 -5 -21
-22 -47 -39 l-47 -31 -35 29 c-20 15 -54 47 -76 70 -33 34 -37 43 -25 50 8 5
24 16 35 24 28 22 32 21 81 -23z m-72 -97 c39 -37 65 -68 60 -73 -35 -32 -418
-251 -425 -244 -13 13 14 84 58 150 41 63 208 233 226 233 7 -1 43 -30 81 -66z
m540 -212 c10 -24 16 -45 13 -48 -8 -9 -212 64 -253 91 -20 13 -18 16 54 92
59 61 84 80 116 88 l41 10 6 -95 c3 -57 12 -112 23 -138z m448 192 c116 -41
187 -195 146 -315 -50 -148 -222 -221 -364 -155 -27 13 -67 43 -87 66 -35 41
-39 60 -14 60 40 1 207 90 207 111 0 4 -24 19 -52 32 -29 13 -68 38 -85 54
l-33 30 23 21 c99 93 269 57 322 -70 27 -65 13 -137 -37 -194 -37 -42 -64 -55
-138 -65 -54 -7 -54 -7 17 -5 63 1 76 5 110 32 128 102 99 297 -53 360 -66 28
-158 14 -220 -32 -27 -20 -34 -21 -44 -9 -31 38 122 110 212 100 26 -3 66 -12
90 -21z m-863 -81 c22 -18 22 -18 -61 -77 -148 -106 -296 -176 -370 -176 -40
0 -51 14 -19 25 10 3 106 59 212 125 107 66 199 120 205 120 7 0 22 -8 33 -17z
m76 -45 c14 -6 24 -16 22 -22 -11 -33 -248 -189 -357 -235 -51 -22 -328 -148
-498 -227 -40 -19 -74 -34 -76 -34 -2 0 -46 -20 -98 -44 -124 -58 -188 -87
-278 -126 -41 -18 -108 -48 -148 -66 -41 -19 -75 -34 -77 -34 -2 0 -47 -20
-100 -45 -54 -25 -124 -57 -156 -71 -33 -13 -89 -38 -124 -54 -148 -68 -172
-74 -135 -35 12 13 172 102 354 196 398 207 511 266 636 332 153 80 424 229
437 240 9 6 23 5 43 -3 23 -10 41 -10 82 0 78 18 240 101 343 175 50 36 93 65
97 65 4 0 19 -5 33 -12z m-2093 -664 l36 -6 -64 -93 c-71 -105 -124 -203 -124
-232 0 -44 42 -54 109 -27 22 9 46 14 52 12 23 -8 -99 -78 -206 -119 -164 -62
-268 -99 -281 -99 -7 0 54 66 135 148 191 190 256 287 206 306 -81 31 -567
-319 -619 -445 -20 -49 -6 -68 59 -77 l50 -8 -49 -17 c-111 -38 -189 -13 -327
107 -178 156 -238 278 -174 355 76 90 256 135 652 166 475 36 494 37 545 29z
m128 -29 c39 -20 47 -55 26 -119 -39 -120 -65 -144 -199 -187 -110 -35 -114
-10 -20 139 122 193 130 200 193 167z m-270 -113 c0 -36 -180 -238 -325 -364
-97 -85 -157 -112 -232 -106 -33 3 -38 7 -41 30 -8 64 285 311 495 418 57 28
103 38 103 22z"/>
</g>
</svg>

